<?xml version="1.0" standalone="no"?>
<!DOCTYPE svg PUBLIC "-//W3C//DTD SVG 20010904//EN"
 "http://www.w3.org/TR/2001/REC-SVG-20010904/DTD/svg10.dtd">
<svg version="1.0" xmlns="http://www.w3.org/2000/svg"
 width="1080.000000pt" height="1080.000000pt" viewBox="0 0 1080.000000 1080.000000"
 preserveAspectRatio="xMidYMid meet">

<g transform="translate(0.000000,1080.000000) scale(0.100000,-0.100000)"
fill="#000000" stroke="none">
<path d="M1880 6779 c-97 -16 -166 -62 -204 -138 -34 -68 -40 -113 -21 -177
66 -226 406 -262 518 -56 39 71 46 145 20 203 -54 122 -180 190 -313 168z"/>
<path d="M1352 6448 c-7 -10 25 -66 115 -203 68 -104 151 -234 184 -288 64
-102 89 -127 126 -127 20 0 -5 42 -187 315 -116 173 -214 315 -219 315 -5 0
-13 -6 -19 -12z"/>
<path d="M3445 5395 c0 -467 1 -657 2 -422 2 236 2 618 0 850 -1 232 -2 40 -2
-428z"/>
<path d="M1776 6068 c19 -62 34 -116 34 -120 0 -5 52 -8 115 -8 l114 0 20 68
c11 37 26 91 35 120 l15 52 -184 0 -183 0 34 -112z"/>
<path d="M2211 6113 c-26 -49 -42 -152 -42 -263 0 -97 15 -247 25 -257 1 -2
27 35 56 82 30 46 56 82 58 80 2 -2 -4 -28 -14 -57 -25 -81 -80 -156 -154
-211 -127 -93 -144 -110 -137 -139 15 -59 59 -73 126 -38 64 32 229 178 266
233 76 116 85 256 25 382 -34 72 -107 153 -168 188 -30 17 -31 17 -41 0z"/>
<path d="M1492 6016 c-70 -64 -109 -180 -82 -246 30 -73 93 -94 327 -109 127
-8 162 -1 183 40 30 54 -15 75 -185 89 -169 13 -175 14 -175 46 0 13 1 24 3
24 2 0 27 -7 56 -16 29 -8 55 -13 57 -11 7 6 -128 217 -138 217 -4 0 -25 -15
-46 -34z"/>
<path d="M9065 5861 l30 -6 3 -208 c1 -114 0 -207 -4 -207 -3 0 -15 11 -26 25
-71 90 -236 68 -287 -38 -26 -53 -26 -99 -2 -152 32 -70 86 -105 162 -105 45
0 113 31 131 60 21 33 38 24 38 -20 l0 -40 40 0 c22 0 40 5 40 10 0 6 -16 10
-35 10 l-35 0 0 340 0 340 -42 -1 c-39 -1 -40 -2 -13 -8z m-29 -386 c44 -34
64 -73 64 -127 0 -74 -51 -138 -126 -157 -73 -19 -153 19 -180 85 -37 88 2
188 86 223 40 17 118 5 156 -24z"/>
<path d="M6710 5730 c0 -67 4 -110 10 -110 6 0 10 43 10 110 0 67 -4 110 -10
110 -6 0 -10 -43 -10 -110z"/>
<path d="M4065 5815 c6 -2 22 -6 38 -9 l27 -6 0 -305 0 -305 -35 0 c-19 0 -35
-4 -35 -10 0 -6 33 -10 80 -10 47 0 80 4 80 10 0 6 -16 10 -35 10 l-35 0 0
290 c0 160 3 290 8 290 4 -1 74 -88 156 -195 81 -107 152 -195 156 -195 4 0
74 87 155 193 81 105 152 192 157 192 6 0 10 -107 11 -285 l2 -285 -37 -3
c-72 -6 -38 -22 47 -22 50 0 85 4 85 10 0 6 -18 10 -40 10 l-40 0 2 308 3 307
40 6 c40 6 40 6 -11 8 l-51 1 -157 -205 c-86 -113 -161 -205 -166 -205 -5 0
-80 92 -166 205 l-157 205 -46 -1 c-25 0 -41 -2 -36 -4z"/>
<path d="M7143 5813 l37 -4 0 -310 0 -309 -35 0 c-19 0 -35 -4 -35 -10 0 -6
35 -10 85 -10 50 0 85 4 85 10 0 6 -15 10 -34 10 l-33 0 -7 77 c-9 113 -7 491
3 497 5 3 77 -84 161 -194 l153 -199 149 197 c82 108 156 198 164 200 12 3 14
-38 12 -285 l-3 -288 -37 -3 c-72 -6 -38 -22 47 -22 85 0 119 16 48 22 l-38 3
0 305 0 305 40 6 c37 6 36 7 -12 5 l-51 -1 -154 -199 c-84 -110 -158 -201
-163 -203 -6 -2 -80 89 -165 201 l-155 205 -50 -1 c-42 -1 -44 -2 -12 -5z"/>
<path d="M8590 5645 c0 -8 7 -15 15 -15 8 0 15 7 15 15 0 8 -7 15 -15 15 -8 0
-15 -7 -15 -15z"/>
<path d="M1903 5617 c-21 -12 -20 -13 34 -89 57 -81 59 -83 82 -69 11 7 4 25
-35 90 -27 44 -51 80 -54 80 -3 0 -15 -5 -27 -12z"/>
<path d="M1559 5613 c-10 -2 -24 -31 -37 -76 -21 -72 -132 -626 -132 -660 0
-15 13 -17 130 -17 l129 0 3 -382 c3 -420 2 -414 64 -443 51 -24 99 -19 136
14 l33 29 5 376 c5 394 8 415 48 390 15 -10 17 -45 22 -386 5 -405 4 -394 61
-424 59 -30 136 -8 164 46 13 24 15 88 15 404 l0 375 59 3 59 3 -47 70 c-30
45 -55 72 -71 76 -14 4 -152 7 -307 8 -219 1 -283 4 -283 14 0 6 12 135 27
285 16 168 23 276 17 281 -11 11 -73 20 -95 14z"/>
<path d="M5050 5498 c-57 -39 -74 -71 -78 -146 -3 -57 0 -72 20 -101 37 -54
71 -74 136 -79 96 -7 165 40 190 130 21 75 -22 169 -91 202 -52 24 -137 21
-177 -6z m160 -10 c54 -28 90 -85 90 -143 0 -58 -36 -115 -90 -142 -55 -28
-82 -29 -136 -2 -119 57 -119 230 -1 288 54 27 82 26 137 -1z"/>
<path d="M5390 5510 c0 -5 16 -10 35 -10 l35 0 0 -274 0 -275 -32 -4 c-18 -2
8 -4 57 -4 50 0 71 2 49 4 l-41 4 -7 61 c-15 143 -2 282 20 223 4 -8 26 -27
51 -41 37 -22 53 -26 102 -22 223 16 211 347 -12 348 -56 0 -95 -18 -130 -59
-29 -35 -37 -31 -37 21 l0 38 -45 0 c-25 0 -45 -4 -45 -10z m300 -10 c78 -22
132 -119 110 -199 -21 -77 -106 -131 -184 -117 -82 16 -150 120 -127 195 15
53 47 90 95 112 47 21 58 22 106 9z"/>
<path d="M6190 5510 c0 -5 16 -10 35 -10 l35 0 0 -155 0 -155 -35 0 c-19 0
-35 -4 -35 -10 0 -6 33 -10 80 -10 47 0 80 4 80 10 0 6 -15 10 -34 10 l-33 0
-7 61 c-16 143 19 224 108 249 49 14 80 7 114 -23 21 -19 22 -28 22 -154 l0
-133 -35 0 c-19 0 -35 -4 -35 -10 0 -6 33 -10 80 -10 47 0 80 4 80 10 0 6 -16
10 -35 10 l-35 0 0 119 c0 130 -10 172 -45 195 -51 34 -155 9 -193 -45 -21
-30 -32 -22 -32 21 l0 40 -40 0 c-22 0 -40 -4 -40 -10z"/>
<path d="M8130 5513 c-64 -24 -110 -95 -110 -169 0 -157 193 -234 299 -120 33
35 41 33 41 -14 l0 -40 40 0 c22 0 40 5 40 10 0 6 -13 10 -29 10 -17 0 -31 6
-35 16 -3 9 -7 82 -8 162 -1 81 -3 130 -5 110 -4 -39 -19 -50 -29 -23 -12 30
-88 65 -140 64 -27 0 -56 -3 -64 -6z m137 -23 c70 -31 107 -115 85 -189 -15
-48 -70 -100 -118 -111 -90 -21 -186 44 -199 133 -10 68 24 133 85 165 54 27
92 28 147 2z"/>
<path d="M8520 5510 c0 -5 18 -10 40 -10 l41 0 -3 -152 -3 -153 -37 -3 c-70
-6 -39 -22 42 -22 47 0 80 4 80 10 0 6 -16 10 -35 10 l-35 0 0 165 0 165 -45
0 c-25 0 -45 -4 -45 -10z"/>
<path d="M2335 5408 c-37 -19 -115 -102 -115 -121 0 -22 10 -39 138 -235 51
-79 95 -142 97 -140 4 4 -91 497 -97 503 -2 2 -12 -1 -23 -7z"/>
<path d="M2138 5263 c-22 -5 -22 -11 -4 -32 27 -32 352 -547 366 -580 26 -64
17 -119 -35 -208 -60 -105 -76 -182 -52 -264 34 -114 77 -136 208 -101 150 41
311 132 414 237 101 101 106 146 24 219 -76 69 -110 81 -244 82 -175 2 -200 8
-254 63 -25 25 -124 169 -220 319 -96 149 -177 271 -180 271 -3 -1 -14 -3 -23
-6z"/>
<path d="M4160 4520 c-18 -18 -20 -33 -20 -153 0 -120 2 -135 20 -155 25 -26
53 -28 80 -5 18 16 20 30 20 155 0 125 -2 140 -20 158 -11 11 -29 20 -40 20
-11 0 -29 -9 -40 -20z m65 -42 c3 -13 5 -72 3 -133 -3 -98 -5 -110 -22 -113
-10 -2 -22 2 -27 10 -10 15 -12 242 -2 251 15 15 43 6 48 -15z"/>
<path d="M5243 4530 c-22 -9 -23 -13 -23 -163 0 -170 5 -184 57 -172 65 14 68
23 68 170 0 106 -3 137 -15 149 -20 20 -60 27 -87 16z m69 -80 c11 -62 0 -191
-18 -210 -25 -25 -39 4 -38 78 1 177 2 184 26 180 18 -2 24 -12 30 -48z"/>
<path d="M7162 4531 c-33 -20 -40 -268 -9 -315 21 -32 57 -34 83 -5 17 19 19
37 18 162 -1 123 -4 142 -20 154 -20 15 -53 17 -72 4z m56 -164 c2 -110 0
-128 -14 -134 -9 -3 -20 0 -25 8 -10 17 -12 242 -2 253 4 4 14 5 23 4 12 -3
15 -25 18 -131z"/>
<path d="M7397 4534 c-4 -4 -7 -70 -7 -147 0 -113 3 -144 17 -168 21 -35 61
-39 89 -8 17 18 19 40 22 170 2 101 0 149 -7 149 -6 0 -14 1 -18 3 -5 1 -10
-65 -13 -148 -5 -142 -6 -150 -25 -150 -19 0 -20 8 -25 149 -5 139 -12 171
-33 150z"/>
<path d="M9268 4533 c-10 -2 -19 -8 -19 -11 -5 -25 -6 -282 -2 -306 5 -26 8
-28 42 -22 21 3 45 16 59 31 20 24 22 36 22 144 0 99 -3 122 -17 139 -19 22
-56 33 -85 25z m52 -43 c23 -14 22 -223 -2 -246 -31 -31 -38 -8 -38 127 0 133
3 142 40 119z"/>
<path d="M3860 4359 c0 -132 3 -170 13 -167 8 3 13 33 15 91 1 48 7 87 11 87
5 0 14 -15 21 -32 40 -107 52 -130 68 -136 9 -3 12 39 12 162 0 141 -2 166
-15 166 -12 0 -15 -17 -15 -97 0 -66 -3 -94 -10 -87 -11 11 -44 93 -61 152 -6
17 -16 32 -24 32 -13 0 -15 -28 -15 -171z"/>
<path d="M4380 4516 c0 -7 9 -16 20 -19 19 -5 20 -14 20 -156 0 -128 2 -151
15 -151 13 0 15 22 16 133 2 169 0 160 27 172 43 19 26 35 -38 35 -44 0 -60
-4 -60 -14z"/>
<path d="M4831 4508 c-5 -13 -12 -48 -15 -78 -4 -30 -14 -92 -23 -138 -18 -97
-7 -128 23 -65 11 21 28 40 38 42 23 4 46 -24 46 -56 0 -14 6 -23 15 -23 23 0
21 27 -27 283 -9 45 -15 57 -30 57 -10 0 -22 -10 -27 -22z m39 -82 c0 -13 3
-44 6 -70 7 -46 6 -48 -17 -44 -23 3 -24 6 -20 63 1 33 5 63 8 68 9 15 23 6
23 -17z"/>
<path d="M5516 4498 c-39 -245 -44 -297 -32 -299 6 0 17 14 25 33 23 47 60 46
76 -1 19 -59 38 -52 31 10 -6 49 -31 209 -42 267 -3 16 -11 22 -29 22 -20 0
-25 -6 -29 -32z m50 -127 c7 -62 7 -63 -17 -59 -21 3 -24 8 -23 43 1 56 13
100 24 89 6 -6 13 -38 16 -73z"/>
<path d="M5700 4523 c0 -5 11 -44 25 -88 18 -57 26 -102 26 -157 0 -75 12
-106 30 -77 5 8 9 46 9 86 0 39 5 84 11 100 6 15 19 54 29 86 16 52 17 57 1
57 -10 0 -21 -16 -31 -47 -8 -25 -21 -48 -27 -50 -7 -3 -20 18 -30 46 -10 28
-23 51 -30 51 -7 0 -13 -3 -13 -7z"/>
<path d="M6130 4508 c0 -13 7 -63 15 -113 8 -49 15 -109 15 -132 0 -88 34
-103 45 -20 4 28 12 63 17 77 10 24 11 24 18 5 5 -11 9 -38 9 -61 1 -38 23
-85 35 -73 9 9 25 104 36 209 6 52 13 103 16 113 3 11 0 17 -9 17 -10 0 -17
-16 -22 -47 -3 -27 -11 -66 -17 -88 -9 -34 -12 -37 -19 -20 -4 11 -8 34 -8 50
-1 39 -20 105 -30 105 -4 0 -13 -34 -20 -75 -19 -114 -32 -109 -46 18 -5 40
-11 57 -21 57 -8 0 -14 -10 -14 -22z"/>
<path d="M6460 4365 c0 -158 1 -165 20 -165 19 0 20 7 20 165 0 158 -1 165
-20 165 -19 0 -20 -7 -20 -165z"/>
<path d="M6620 4520 c0 -6 11 -15 25 -20 l25 -10 0 -150 c0 -127 2 -150 15
-150 13 0 15 22 16 133 1 72 2 137 4 142 1 6 3 15 3 21 1 7 11 14 22 17 11 3
20 10 20 16 0 7 -25 11 -65 11 -38 0 -65 -4 -65 -10z"/>
<path d="M6880 4359 c0 -132 3 -170 13 -167 7 3 14 28 17 59 5 50 7 54 30 54
23 0 25 -4 30 -57 4 -45 8 -56 18 -49 11 6 14 43 13 157 0 82 0 155 -1 162 0
6 -7 12 -15 12 -11 0 -15 -19 -17 -87 -3 -86 -3 -88 -28 -88 -25 0 -25 2 -28
88 -2 68 -6 87 -17 87 -13 0 -15 -28 -15 -171z"/>
<path d="M7640 4520 c0 -6 11 -15 25 -20 l25 -10 0 -150 c0 -127 2 -150 15
-150 13 0 15 23 15 143 0 78 4 147 8 153 4 6 15 13 25 17 38 14 15 27 -48 27
-38 0 -65 -4 -65 -10z"/>
<path d="M8097 4524 c-4 -4 -7 -20 -7 -36 0 -16 -6 -61 -14 -101 -24 -119 -30
-200 -16 -195 7 2 18 19 24 38 18 58 67 51 80 -11 9 -45 32 -31 28 17 -3 38
-25 182 -40 254 -7 34 -37 52 -55 34z m42 -124 c14 -64 14 -73 0 -87 -32 -32
-49 24 -33 106 9 45 21 38 33 -19z"/>
<path d="M8500 4437 c0 -52 -3 -129 -7 -172 -5 -64 -4 -77 8 -73 9 3 16 26 20
66 3 34 9 65 12 68 6 6 27 -60 27 -87 0 -8 6 -24 14 -34 13 -18 15 -15 31 40
26 94 28 95 38 17 6 -48 13 -72 21 -69 6 2 10 21 9 43 -10 231 -16 295 -26
291 -6 -2 -21 -43 -32 -92 -19 -85 -38 -115 -48 -78 -3 10 -13 53 -23 96 -25
111 -44 104 -44 -16z"/>
<path d="M8851 4508 c-5 -13 -12 -48 -15 -78 -4 -30 -14 -92 -23 -138 -18 -97
-7 -128 23 -65 11 21 28 40 38 42 23 4 46 -24 46 -56 0 -14 6 -23 15 -23 23 0
21 27 -27 283 -9 45 -15 57 -30 57 -10 0 -22 -10 -27 -22z m39 -82 c0 -13 3
-44 6 -70 7 -46 6 -48 -17 -44 -23 3 -24 6 -20 63 1 33 5 63 8 68 9 15 23 6
23 -17z"/>
<path d="M9070 4365 c0 -140 2 -165 15 -165 13 0 15 25 15 165 0 140 -2 165
-15 165 -13 0 -15 -25 -15 -165z"/>
</g>
</svg>
